<svg width="27" height="27" viewBox="0 0 27 27" fill="none" xmlns="http://www.w3.org/2000/svg">
<g clip-path="url(#clip0_73_14)">
<path fill-rule="evenodd" clip-rule="evenodd" d="M13.5 -0.00141144C18.5558 -0.00141144 22.7689 4.21167 22.7689 9.2675C22.7689 10.9176 22.2017 12.5449 21.4091 14.0193C20.6133 15.4994 19.56 16.8814 18.5134 18.058C17.4649 19.2368 16.4055 20.2294 15.5801 20.9306C15.1678 21.2808 14.8069 21.5643 14.5287 21.7651C14.3913 21.8642 14.2625 21.9514 14.1514 22.0181C14.0973 22.0505 14.0314 22.0879 13.9614 22.1203C13.9265 22.1363 13.8763 22.1579 13.8164 22.177C13.7693 22.1921 13.6516 22.2274 13.5 22.2274C13.3471 22.2274 13.2285 22.1915 13.1812 22.1763C13.1211 22.1568 13.0707 22.135 13.0357 22.1188C12.9655 22.086 12.8996 22.0484 12.8455 22.0156C12.7344 21.9483 12.6057 21.8604 12.4684 21.7605C12.1904 21.5583 11.8297 21.2729 11.4176 20.9204C10.5926 20.2149 9.53363 19.2173 8.48562 18.0352C7.4397 16.8555 6.38685 15.4723 5.59136 13.9956C4.79927 12.5253 4.23113 10.9046 4.23113 9.2675C4.23113 4.21167 8.44421 -0.00141144 13.5 -0.00141144ZM13.5 12.0357C11.9712 12.0357 10.7318 10.7963 10.7318 9.2675C10.7318 7.73866 11.9712 6.49929 13.5 6.49929C15.0289 6.49929 16.2682 7.73866 16.2682 9.2675C16.2682 10.7963 15.0289 12.0357 13.5 12.0357ZM19.477 19.5873C19.8329 19.1873 20.1889 18.7683 20.5383 18.3329H23.1286C23.5143 18.3329 23.863 18.5628 24.015 18.9173L26.9034 25.6573C27.0311 25.9553 27.0006 26.2974 26.8222 26.568C26.6438 26.8386 26.3412 27.0014 26.0172 27.0014H0.982904C0.658767 27.0014 0.356313 26.8386 0.177879 26.568C-0.000555681 26.2974 -0.0310979 25.9553 0.0965869 25.6573L2.98514 18.9173C3.13709 18.5628 3.48572 18.3329 3.87148 18.3329H6.48533C6.82682 18.7581 7.17444 19.1679 7.52176 19.5596C8.79757 20.9987 10.0869 22.2135 11.0907 23.0717C11.5921 23.5006 12.0293 23.8464 12.3641 24.0898C12.5297 24.2103 12.6818 24.3141 12.8106 24.392C12.8735 24.4302 12.9468 24.4718 13.0229 24.5073C13.0608 24.5251 13.1137 24.5478 13.176 24.5679C13.2254 24.5839 13.3457 24.6201 13.4999 24.6201C13.6528 24.6201 13.7723 24.5845 13.8215 24.5688C13.8835 24.549 13.9362 24.5264 13.974 24.5089C14.0499 24.4738 14.1232 24.4325 14.1861 24.3947C14.3149 24.3174 14.4671 24.2144 14.6328 24.0948C14.9678 23.8532 15.4051 23.5099 15.9068 23.0837C16.9109 22.2306 18.2008 21.0222 19.477 19.5873Z" fill="#E8E6E3"/>
</g>
<defs>
<clipPath id="clip0_73_14">
<rect width="27" height="27" fill="white"/>
</clipPath>
</defs>
</svg>
