<svg width="27" height="28" viewBox="0 0 27 28" fill="none" xmlns="http://www.w3.org/2000/svg">
<path fill-rule="evenodd" clip-rule="evenodd" d="M0 5.5C0 3.84314 1.29518 2.5 2.89286 2.5H24.1071C25.7048 2.5 27 3.84314 27 5.5V6.1839L14.2394 15.0076C14.0594 15.1276 13.7982 15.2133 13.5 15.2133C13.2018 15.2133 12.9405 15.1276 12.7606 15.0076L0 6.18392V5.5ZM0 9.1887V22.5C0 24.1568 1.29518 25.5 2.89286 25.5H24.1071C25.7048 25.5 27 24.1568 27 22.5V9.18868L15.559 17.0999C14.9522 17.5095 14.2235 17.7133 13.5 17.7133C12.7765 17.7133 12.0478 17.5095 11.441 17.0998L11.4298 17.0923L0 9.1887Z" fill="#E8E6E3"/>
</svg>
